<svg width="90" height="90" viewBox="0 0 90 90" fill="none" xmlns="http://www.w3.org/2000/svg">
<circle cx="45" cy="45" r="45" fill="#D9D9D9"/>
<g clip-path="url(#clip0_810_15420)">
<path d="M45 29C41.8355 29 38.7421 29.9384 36.1109 31.6965C33.4797 33.4546 31.4289 35.9534 30.2179 38.8771C29.0069 41.8007 28.6901 45.0177 29.3074 48.1214C29.9248 51.2251 31.4487 54.0761 33.6863 56.3137C35.9239 58.5513 38.7749 60.0752 41.8786 60.6926C44.9823 61.3099 48.1993 60.9931 51.1229 59.7821C54.0466 58.5711 56.5454 56.5203 58.3035 53.8891C60.0616 51.2579 61 48.1645 61 45C60.9984 40.757 59.3122 36.6883 56.312 33.688C53.3117 30.6878 49.243 29.0016 45 29ZM33 45C33.0028 44.2651 33.0731 43.532 33.21 42.81L40.2 49.8V51.4C40.2026 52.2479 40.5406 53.0603 41.1402 53.6598C41.7397 54.2594 42.5521 54.5974 43.4 54.6V56.88C40.5234 56.4913 37.8849 55.0737 35.9729 52.8896C34.0609 50.7055 33.0048 47.9028 33 45ZM51.4 51.4H49.8V46.6C49.7989 46.176 49.63 45.7696 49.3302 45.4698C49.0304 45.17 48.624 45.0011 48.2 45H38.6V41.8H41.8C42.224 41.7989 42.6304 41.63 42.9302 41.3302C43.23 41.0304 43.3989 40.624 43.4 40.2V37H46.6C47.4117 36.9965 48.1917 36.6847 48.7822 36.1277C49.3726 35.5707 49.7293 34.8101 49.78 34C51.509 34.7474 53.0372 35.8923 54.2403 37.3416C55.4434 38.7909 56.2876 40.5037 56.704 42.3407C57.1205 44.1777 57.0976 46.0871 56.6371 47.9135C56.1766 49.74 55.2916 51.432 54.054 52.852C53.7697 52.4061 53.3774 52.0391 52.9134 51.7853C52.4494 51.5315 51.9289 51.3989 51.4 51.4ZM47 23C47 23.3956 46.8827 23.7822 46.6629 24.1111C46.4432 24.44 46.1308 24.6964 45.7654 24.8478C45.3999 24.9991 44.9978 25.0387 44.6098 24.9616C44.2219 24.8844 43.8655 24.6939 43.5858 24.4142C43.3061 24.1345 43.1156 23.7781 43.0384 23.3902C42.9613 23.0022 43.0009 22.6001 43.1522 22.2346C43.3036 21.8692 43.56 21.5568 43.8889 21.3371C44.2178 21.1173 44.6044 21 45 21C45.5304 21 46.0391 21.2107 46.4142 21.5858C46.7893 21.9609 47 22.4696 47 23ZM57 25C57 25.3956 56.8827 25.7822 56.6629 26.1111C56.4432 26.44 56.1308 26.6964 55.7654 26.8478C55.3999 26.9991 54.9978 27.0387 54.6098 26.9616C54.2219 26.8844 53.8655 26.6939 53.5858 26.4142C53.3061 26.1345 53.1156 25.7781 53.0384 25.3902C52.9613 25.0022 53.0009 24.6001 53.1522 24.2346C53.3036 23.8692 53.56 23.5568 53.8889 23.3371C54.2178 23.1173 54.6044 23 55 23C55.5304 23 56.0391 23.2107 56.4142 23.5858C56.7893 23.9609 57 24.4696 57 25ZM65 33C65 33.3956 64.8827 33.7822 64.6629 34.1111C64.4432 34.44 64.1308 34.6964 63.7654 34.8478C63.3999 34.9991 62.9978 35.0387 62.6098 34.9616C62.2219 34.8844 61.8655 34.6939 61.5858 34.4142C61.3061 34.1345 61.1156 33.7781 61.0384 33.3902C60.9613 33.0022 61.0009 32.6001 61.1522 32.2346C61.3036 31.8692 61.56 31.5568 61.8889 31.3371C62.2178 31.1173 62.6044 31 63 31C63.5304 31 64.0391 31.2107 64.4142 31.5858C64.7893 31.9609 65 32.4696 65 33ZM69 45C69 45.3956 68.8827 45.7822 68.6629 46.1111C68.4432 46.44 68.1308 46.6964 67.7654 46.8478C67.3999 46.9991 66.9978 47.0387 66.6098 46.9616C66.2219 46.8844 65.8655 46.6939 65.5858 46.4142C65.3061 46.1345 65.1156 45.7781 65.0384 45.3902C64.9613 45.0022 65.0009 44.6001 65.1522 44.2346C65.3036 43.8692 65.56 43.5568 65.8889 43.3371C66.2178 43.1173 66.6044 43 67 43C67.5304 43 68.0391 43.2107 68.4142 43.5858C68.7893 43.9609 69 44.4696 69 45ZM65 57C65 57.3956 64.8827 57.7822 64.6629 58.1111C64.4432 58.44 64.1308 58.6964 63.7654 58.8478C63.3999 58.9991 62.9978 59.0387 62.6098 58.9616C62.2219 58.8844 61.8655 58.6939 61.5858 58.4142C61.3061 58.1345 61.1156 57.7781 61.0384 57.3902C60.9613 57.0022 61.0009 56.6001 61.1522 56.2346C61.3036 55.8692 61.56 55.5568 61.8889 55.3371C62.2178 55.1173 62.6044 55 63 55C63.5304 55 64.0391 55.2107 64.4142 55.5858C64.7893 55.9609 65 56.4696 65 57ZM57 65C57 65.3956 56.8827 65.7822 56.6629 66.1111C56.4432 66.44 56.1308 66.6964 55.7654 66.8478C55.3999 66.9991 54.9978 67.0387 54.6098 66.9616C54.2219 66.8844 53.8655 66.6939 53.5858 66.4142C53.3061 66.1345 53.1156 65.7781 53.0384 65.3902C52.9613 65.0022 53.0009 64.6001 53.1522 64.2346C53.3036 63.8692 53.56 63.5568 53.8889 63.3371C54.2178 63.1173 54.6044 63 55 63C55.5304 63 56.0391 63.2107 56.4142 63.5858C56.7893 63.9609 57 64.4696 57 65ZM47 67C47 67.3956 46.8827 67.7822 46.6629 68.1111C46.4432 68.44 46.1308 68.6964 45.7654 68.8478C45.3999 68.9991 44.9978 69.0387 44.6098 68.9616C44.2219 68.8844 43.8655 68.6939 43.5858 68.4142C43.3061 68.1345 43.1156 67.7781 43.0384 67.3902C42.9613 67.0022 43.0009 66.6001 43.1522 66.2346C43.3036 65.8692 43.56 65.5568 43.8889 65.3371C44.2178 65.1173 44.6044 65 45 65C45.5304 65 46.0391 65.2107 46.4142 65.5858C46.7893 65.9609 47 66.4696 47 67ZM37 65C37 65.3956 36.8827 65.7822 36.6629 66.1111C36.4432 66.44 36.1308 66.6964 35.7654 66.8478C35.3999 66.9991 34.9978 67.0387 34.6098 66.9616C34.2219 66.8844 33.8655 66.6939 33.5858 66.4142C33.3061 66.1345 33.1156 65.7781 33.0384 65.3902C32.9613 65.0022 33.0009 64.6001 33.1522 64.2346C33.3036 63.8692 33.56 63.5568 33.8889 63.3371C34.2178 63.1173 34.6044 63 35 63C35.5304 63 36.0391 63.2107 36.4142 63.5858C36.7893 63.9609 37 64.4696 37 65ZM29 57C29 57.3956 28.8827 57.7822 28.6629 58.1111C28.4432 58.44 28.1308 58.6964 27.7654 58.8478C27.3999 58.9991 26.9978 59.0387 26.6098 58.9616C26.2219 58.8844 25.8655 58.6939 25.5858 58.4142C25.3061 58.1345 25.1156 57.7781 25.0384 57.3902C24.9613 57.0022 25.0009 56.6001 25.1522 56.2346C25.3036 55.8692 25.56 55.5568 25.8889 55.3371C26.2178 55.1173 26.6044 55 27 55C27.5304 55 28.0391 55.2107 28.4142 55.5858C28.7893 55.9609 29 56.4696 29 57ZM25 45C25 45.3956 24.8827 45.7822 24.6629 46.1111C24.4432 46.44 24.1308 46.6964 23.7654 46.8478C23.3999 46.9991 22.9978 47.0387 22.6098 46.9616C22.2219 46.8844 21.8655 46.6939 21.5858 46.4142C21.3061 46.1345 21.1156 45.7781 21.0384 45.3902C20.9613 45.0022 21.0009 44.6001 21.1522 44.2346C21.3036 43.8692 21.56 43.5568 21.8889 43.3371C22.2178 43.1173 22.6044 43 23 43C23.5304 43 24.0391 43.2107 24.4142 43.5858C24.7893 43.9609 25 44.4696 25 45ZM29 33C29 33.3956 28.8827 33.7822 28.6629 34.1111C28.4432 34.44 28.1308 34.6964 27.7654 34.8478C27.3999 34.9991 26.9978 35.0387 26.6098 34.9616C26.2219 34.8844 25.8655 34.6939 25.5858 34.4142C25.3061 34.1345 25.1156 33.7781 25.0384 33.3902C24.9613 33.0022 25.0009 32.6001 25.1522 32.2346C25.3036 31.8692 25.56 31.5568 25.8889 31.3371C26.2178 31.1173 26.6044 31 27 31C27.5304 31 28.0391 31.2107 28.4142 31.5858C28.7893 31.9609 29 32.4696 29 33ZM37 25C37 25.3956 36.8827 25.7822 36.6629 26.1111C36.4432 26.44 36.1308 26.6964 35.7654 26.8478C35.3999 26.9991 34.9978 27.0387 34.6098 26.9616C34.2219 26.8844 33.8655 26.6939 33.5858 26.4142C33.3061 26.1345 33.1156 25.7781 33.0384 25.3902C32.9613 25.0022 33.0009 24.6001 33.1522 24.2346C33.3036 23.8692 33.56 23.5568 33.8889 23.3371C34.2178 23.1173 34.6044 23 35 23C35.5304 23 36.0391 23.2107 36.4142 23.5858C36.7893 23.9609 37 24.4696 37 25Z" fill="#272D33"/>
</g>
<defs>
<clipPath id="clip0_810_15420">
<rect width="48" height="48" fill="white" transform="translate(21 21)"/>
</clipPath>
</defs>
</svg>
