<svg width="90" height="90" viewBox="0 0 90 90" fill="none" xmlns="http://www.w3.org/2000/svg">
<circle cx="45" cy="45" r="45" fill="#D9D9D9"/>
<path d="M19.2578 55.4559C19.6052 51.3254 20.8699 47.523 23.0517 44.0487C25.2335 40.5744 28.138 37.8143 31.7652 35.7684L27.4802 28.3566C27.2486 28.0092 27.1907 27.6425 27.3065 27.2564C27.4223 26.8704 27.6733 26.5809 28.0593 26.3879C28.3681 26.1948 28.7155 26.1562 29.1016 26.2721C29.4876 26.3879 29.7964 26.6195 30.028 26.9669L34.313 34.3787C37.6328 32.989 41.1071 32.2941 44.7358 32.2941C48.3644 32.2941 51.8387 32.989 55.1585 34.3787L59.4435 26.9669C59.6751 26.6195 59.9839 26.3879 60.3699 26.2721C60.756 26.1562 61.1034 26.1948 61.4122 26.3879C61.7983 26.5809 62.0492 26.8704 62.165 27.2564C62.2808 27.6425 62.2229 28.0092 61.9913 28.3566L57.7063 35.7684C61.335 37.8143 64.2395 40.5744 66.4198 44.0487C68.6001 47.523 69.8647 51.3254 70.2137 55.4559H19.2578ZM33.1549 49.0864C33.9655 49.0864 34.6511 48.8061 35.2116 48.2456C35.7722 47.6851 36.0516 47.0003 36.0501 46.1912C36.0501 45.3805 35.7698 44.6949 35.2093 44.1344C34.6488 43.5739 33.964 43.2944 33.1549 43.2959C32.3442 43.2959 31.6586 43.5762 31.0981 44.1367C30.5376 44.6972 30.2581 45.3821 30.2597 46.1912C30.2597 47.0018 30.5399 47.6874 31.1004 48.2479C31.6609 48.8084 32.3458 49.0879 33.1549 49.0864ZM56.3166 49.0864C57.1273 49.0864 57.8129 48.8061 58.3734 48.2456C58.9339 47.6851 59.2134 47.0003 59.2119 46.1912C59.2119 45.3805 58.9316 44.6949 58.3711 44.1344C57.8106 43.5739 57.1258 43.2944 56.3166 43.2959C55.506 43.2959 54.8204 43.5762 54.2599 44.1367C53.6994 44.6972 53.4199 45.3821 53.4214 46.1912C53.4214 47.0018 53.7017 47.6874 54.2622 48.2479C54.8227 48.8084 55.5075 49.0879 56.3166 49.0864Z" fill="#272D33"/>
</svg>
