<svg width="90" height="90" viewBox="0 0 90 90" fill="none" xmlns="http://www.w3.org/2000/svg">
<circle cx="45" cy="45" r="45" fill="#D9D9D9"/>
<path d="M21.907 36.9706V34.0586H27.731V54.4706H24.511V36.9706H21.907ZM45.276 36.8026H35.896V42.3746C36.288 41.8519 36.8667 41.4132 37.632 41.0586C38.416 40.7039 39.2467 40.5266 40.124 40.5266C41.692 40.5266 42.9614 40.8626 43.932 41.5346C44.9214 42.2066 45.6214 43.0559 46.032 44.0826C46.4614 45.1092 46.676 46.1919 46.676 47.3306C46.676 48.7119 46.4054 49.9439 45.864 51.0266C45.3414 52.0906 44.548 52.9306 43.484 53.5466C42.4387 54.1626 41.1507 54.4706 39.62 54.4706C37.5854 54.4706 35.952 53.9666 34.72 52.9586C33.488 51.9506 32.7507 50.6159 32.508 48.9546H35.616C35.8214 49.8319 36.2787 50.5319 36.988 51.0546C37.6974 51.5586 38.584 51.8106 39.648 51.8106C40.9734 51.8106 41.9627 51.4092 42.616 50.6066C43.288 49.8039 43.624 48.7399 43.624 47.4146C43.624 46.0706 43.288 45.0439 42.616 44.3346C41.944 43.6066 40.9547 43.2426 39.648 43.2426C38.7334 43.2426 37.9587 43.4759 37.324 43.9426C36.708 44.3906 36.26 45.0066 35.98 45.7906H32.956V34.0026H45.276V36.8026ZM65.4548 45.7066H59.7988V51.5026H56.8308V45.7066H51.1748V43.0186H56.8308V37.2226H59.7988V43.0186H65.4548V45.7066Z" fill="#272D33"/>
</svg>
