<svg width="90" height="90" viewBox="0 0 90 90" fill="none" xmlns="http://www.w3.org/2000/svg">
<circle cx="45" cy="45" r="45" fill="#D9D9D9"/>
<path d="M34.1252 26.825H27.9002C26.7542 26.825 25.8252 27.754 25.8252 28.9V35.125C25.8252 36.2709 26.7542 37.2 27.9002 37.2H34.1252C35.2712 37.2 36.2002 36.2709 36.2002 35.125V28.9C36.2002 27.754 35.2712 26.825 34.1252 26.825Z" stroke="#272D33" stroke-width="5" stroke-linecap="round" stroke-linejoin="round"/>
<path d="M61.1003 26.825H54.8753C53.7293 26.825 52.8003 27.754 52.8003 28.9V35.125C52.8003 36.2709 53.7293 37.2 54.8753 37.2H61.1003C62.2463 37.2 63.1753 36.2709 63.1753 35.125V28.9C63.1753 27.754 62.2463 26.825 61.1003 26.825Z" stroke="#272D33" stroke-width="5" stroke-linecap="round" stroke-linejoin="round"/>
<path d="M34.1252 53.7999H27.9002C26.7542 53.7999 25.8252 54.7289 25.8252 55.8749V62.0999C25.8252 63.2459 26.7542 64.1749 27.9002 64.1749H34.1252C35.2712 64.1749 36.2002 63.2459 36.2002 62.0999V55.8749C36.2002 54.7289 35.2712 53.7999 34.1252 53.7999Z" stroke="#272D33" stroke-width="5" stroke-linecap="round" stroke-linejoin="round"/>
<path d="M63.1752 53.8H56.9502C55.8495 53.8 54.794 54.2372 54.0157 55.0155C53.2374 55.7937 52.8002 56.8493 52.8002 57.95V64.175M63.1752 64.175V64.1957M44.5002 35.125V41.35C44.5002 42.4506 44.063 43.5062 43.2847 44.2844C42.5064 45.0627 41.4508 45.5 40.3502 45.5H34.1252M25.8252 45.5H25.8459M44.5002 26.825H44.5209M44.5002 53.8V53.8207M52.8002 45.5H54.8752M63.1752 45.5V45.5207M44.5002 64.175V62.1" stroke="#272D33" stroke-width="5" stroke-linecap="round" stroke-linejoin="round"/>
</svg>
